<svg width="26" height="26" viewBox="0 0 26 26" fill="none" xmlns="http://www.w3.org/2000/svg">
<g id="icon/action/history_24px">
<path id="icon/action/history_24px_2" fill-rule="evenodd" clip-rule="evenodd" d="M4.48939 13.0019C4.48939 7.53106 9.00689 3.10022 14.5211 3.25189C19.6019 3.39272 23.8486 7.63939 23.9894 12.7202C24.1411 18.2344 19.7102 22.7519 14.2394 22.7519C11.9752 22.7519 9.90606 21.9827 8.25939 20.6827C7.75023 20.2927 7.71773 19.5236 8.17273 19.0686C8.56273 18.6786 9.16939 18.6461 9.60273 18.9819C10.8811 19.9894 12.4952 20.5852 14.2394 20.5852C18.4644 20.5852 21.8769 17.1294 21.8227 12.8936C21.7686 8.86355 18.3777 5.47272 14.3477 5.41856C10.1011 5.36439 6.65606 8.77689 6.65606 13.0019H8.59523C9.08273 13.0019 9.32106 13.5869 8.98523 13.9227L5.96273 16.9561C5.74606 17.1727 5.41023 17.1727 5.19356 16.9561L2.17106 13.9227C1.82439 13.5869 2.06273 13.0019 2.55023 13.0019H4.48939ZM13.1561 9.48105C13.1561 9.03689 13.5244 8.66855 13.9686 8.66855C14.4127 8.66855 14.7811 9.03689 14.7811 9.47022V13.1536L17.9011 15.0061C18.2802 15.2336 18.4102 15.7319 18.1827 16.1219C17.9552 16.5011 17.4569 16.6311 17.0669 16.4036L13.6869 14.3994C13.3619 14.2044 13.1561 13.8469 13.1561 13.4677V9.48105Z" fill="white"/>
</g>
</svg>
